<svg width="59" height="11" viewBox="0 0 59 11" fill="none" xmlns="http://www.w3.org/2000/svg">
<g id="Frame 427318817">
<g id="Vector">
<path d="M4.86751 0.872956C5.05091 0.501333 5.58084 0.501332 5.76424 0.872955L6.9629 3.30169C7.03573 3.44926 7.17651 3.55155 7.33937 3.57521L10.0196 3.96468C10.4297 4.02427 10.5935 4.52825 10.2967 4.81752L8.35728 6.70803C8.23944 6.8229 8.18566 6.9884 8.21348 7.1506L8.67133 9.82003C8.74138 10.2285 8.31266 10.54 7.94585 10.3471L5.54855 9.08678C5.40288 9.01021 5.22887 9.01021 5.08321 9.08678L2.6859 10.3471C2.31909 10.54 1.89037 10.2285 1.96043 9.82003L2.41827 7.1506C2.44609 6.9884 2.39231 6.8229 2.27447 6.70803L0.335012 4.81752C0.0382539 4.52826 0.202008 4.02427 0.612119 3.96468L3.29239 3.57521C3.45524 3.55155 3.59602 3.44926 3.66886 3.30169L4.86751 0.872956ZM16.8675 0.872956C17.0509 0.501333 17.5808 0.501332 17.7642 0.872955L18.9629 3.30169C19.0357 3.44926 19.1765 3.55155 19.3394 3.57521L22.0196 3.96468C22.4297 4.02427 22.5935 4.52825 22.2967 4.81752L20.3573 6.70803C20.2394 6.8229 20.1857 6.9884 20.2135 7.1506L20.6713 9.82003C20.7414 10.2285 20.3127 10.54 19.9459 10.3471L17.5485 9.08678C17.4029 9.01021 17.2289 9.01021 17.0832 9.08678L14.6859 10.3471C14.3191 10.54 13.8904 10.2285 13.9604 9.82003L14.4183 7.1506C14.4461 6.9884 14.3923 6.8229 14.2745 6.70803L12.335 4.81752C12.0383 4.52826 12.202 4.02427 12.6121 3.96468L15.2924 3.57521C15.4552 3.55155 15.596 3.44926 15.6689 3.30169L16.8675 0.872956ZM28.8675 0.872956C29.0509 0.501333 29.5808 0.501332 29.7642 0.872955L30.9629 3.30169C31.0357 3.44926 31.1765 3.55155 31.3394 3.57521L34.0196 3.96468C34.4297 4.02427 34.5935 4.52825 34.2967 4.81752L32.3573 6.70803C32.2394 6.8229 32.1857 6.9884 32.2135 7.1506L32.6713 9.82003C32.7414 10.2285 32.3127 10.54 31.9459 10.3471L29.5485 9.08678C29.4029 9.01021 29.2289 9.01021 29.0832 9.08678L26.6859 10.3471C26.3191 10.54 25.8904 10.2285 25.9604 9.82003L26.4183 7.1506C26.4461 6.9884 26.3923 6.8229 26.2745 6.70803L24.335 4.81752C24.0383 4.52826 24.202 4.02427 24.6121 3.96468L27.2924 3.57521C27.4552 3.55155 27.596 3.44926 27.6689 3.30169L28.8675 0.872956ZM40.8675 0.872956C41.0509 0.501333 41.5808 0.501332 41.7642 0.872955L42.9629 3.30169C43.0357 3.44926 43.1765 3.55155 43.3394 3.57521L46.0196 3.96468C46.4297 4.02427 46.5935 4.52825 46.2967 4.81752L44.3573 6.70803C44.2394 6.8229 44.1857 6.9884 44.2135 7.1506L44.6713 9.82003C44.7414 10.2285 44.3127 10.54 43.9459 10.3471L41.5485 9.08678C41.4029 9.01021 41.2289 9.01021 41.0832 9.08678L38.6859 10.3471C38.3191 10.54 37.8904 10.2285 37.9604 9.82003L38.4183 7.1506C38.4461 6.9884 38.3923 6.8229 38.2745 6.70803L36.335 4.81752C36.0383 4.52826 36.202 4.02427 36.6121 3.96468L39.2924 3.57521C39.4552 3.55155 39.596 3.44926 39.6689 3.30169L40.8675 0.872956ZM52.8675 0.872956C53.0509 0.501333 53.5808 0.501332 53.7642 0.872955L54.9629 3.30169C55.0357 3.44926 55.1765 3.55155 55.3394 3.57521L58.0196 3.96468C58.4297 4.02427 58.5935 4.52825 58.2967 4.81752L56.3573 6.70803C56.2394 6.8229 56.1857 6.9884 56.2135 7.1506L56.6713 9.82003C56.7414 10.2285 56.3127 10.54 55.9459 10.3471L53.5485 9.08678C53.4029 9.01021 53.2289 9.01021 53.0832 9.08678L50.6859 10.3471C50.3191 10.54 49.8904 10.2285 49.9604 9.82003L50.4183 7.1506C50.4461 6.9884 50.3923 6.8229 50.2745 6.70803L48.335 4.81752C48.0383 4.52826 48.202 4.02427 48.6121 3.96468L51.2924 3.57521C51.4552 3.55155 51.596 3.44926 51.6689 3.30169L52.8675 0.872956Z" fill="#FFC700"/>
<path d="M4.86751 0.872956C5.05091 0.501333 5.58084 0.501332 5.76424 0.872955L6.9629 3.30169C7.03573 3.44926 7.17651 3.55155 7.33937 3.57521L10.0196 3.96468C10.4297 4.02427 10.5935 4.52825 10.2967 4.81752L8.35728 6.70803C8.23944 6.8229 8.18566 6.9884 8.21348 7.1506L8.67133 9.82003C8.74138 10.2285 8.31266 10.54 7.94585 10.3471L5.54855 9.08678C5.40288 9.01021 5.22887 9.01021 5.08321 9.08678L2.6859 10.3471C2.31909 10.54 1.89037 10.2285 1.96043 9.82003L2.41827 7.1506C2.44609 6.9884 2.39231 6.8229 2.27447 6.70803L0.335012 4.81752C0.0382539 4.52826 0.202008 4.02427 0.612119 3.96468L3.29239 3.57521C3.45524 3.55155 3.59602 3.44926 3.66886 3.30169L4.86751 0.872956ZM16.8675 0.872956C17.0509 0.501333 17.5808 0.501332 17.7642 0.872955L18.9629 3.30169C19.0357 3.44926 19.1765 3.55155 19.3394 3.57521L22.0196 3.96468C22.4297 4.02427 22.5935 4.52825 22.2967 4.81752L20.3573 6.70803C20.2394 6.8229 20.1857 6.9884 20.2135 7.1506L20.6713 9.82003C20.7414 10.2285 20.3127 10.54 19.9459 10.3471L17.5485 9.08678C17.4029 9.01021 17.2289 9.01021 17.0832 9.08678L14.6859 10.3471C14.3191 10.54 13.8904 10.2285 13.9604 9.82003L14.4183 7.1506C14.4461 6.9884 14.3923 6.8229 14.2745 6.70803L12.335 4.81752C12.0383 4.52826 12.202 4.02427 12.6121 3.96468L15.2924 3.57521C15.4552 3.55155 15.596 3.44926 15.6689 3.30169L16.8675 0.872956ZM28.8675 0.872956C29.0509 0.501333 29.5808 0.501332 29.7642 0.872955L30.9629 3.30169C31.0357 3.44926 31.1765 3.55155 31.3394 3.57521L34.0196 3.96468C34.4297 4.02427 34.5935 4.52825 34.2967 4.81752L32.3573 6.70803C32.2394 6.8229 32.1857 6.9884 32.2135 7.1506L32.6713 9.82003C32.7414 10.2285 32.3127 10.54 31.9459 10.3471L29.5485 9.08678C29.4029 9.01021 29.2289 9.01021 29.0832 9.08678L26.6859 10.3471C26.3191 10.54 25.8904 10.2285 25.9604 9.82003L26.4183 7.1506C26.4461 6.9884 26.3923 6.8229 26.2745 6.70803L24.335 4.81752C24.0383 4.52826 24.202 4.02427 24.6121 3.96468L27.2924 3.57521C27.4552 3.55155 27.596 3.44926 27.6689 3.30169L28.8675 0.872956ZM40.8675 0.872956C41.0509 0.501333 41.5808 0.501332 41.7642 0.872955L42.9629 3.30169C43.0357 3.44926 43.1765 3.55155 43.3394 3.57521L46.0196 3.96468C46.4297 4.02427 46.5935 4.52825 46.2967 4.81752L44.3573 6.70803C44.2394 6.8229 44.1857 6.9884 44.2135 7.1506L44.6713 9.82003C44.7414 10.2285 44.3127 10.54 43.9459 10.3471L41.5485 9.08678C41.4029 9.01021 41.2289 9.01021 41.0832 9.08678L38.6859 10.3471C38.3191 10.54 37.8904 10.2285 37.9604 9.82003L38.4183 7.1506C38.4461 6.9884 38.3923 6.8229 38.2745 6.70803L36.335 4.81752C36.0383 4.52826 36.202 4.02427 36.6121 3.96468L39.2924 3.57521C39.4552 3.55155 39.596 3.44926 39.6689 3.30169L40.8675 0.872956ZM52.8675 0.872956C53.0509 0.501333 53.5808 0.501332 53.7642 0.872955L54.9629 3.30169C55.0357 3.44926 55.1765 3.55155 55.3394 3.57521L58.0196 3.96468C58.4297 4.02427 58.5935 4.52825 58.2967 4.81752L56.3573 6.70803C56.2394 6.8229 56.1857 6.9884 56.2135 7.1506L56.6713 9.82003C56.7414 10.2285 56.3127 10.54 55.9459 10.3471L53.5485 9.08678C53.4029 9.01021 53.2289 9.01021 53.0832 9.08678L50.6859 10.3471C50.3191 10.54 49.8904 10.2285 49.9604 9.82003L50.4183 7.1506C50.4461 6.9884 50.3923 6.8229 50.2745 6.70803L48.335 4.81752C48.0383 4.52826 48.202 4.02427 48.6121 3.96468L51.2924 3.57521C51.4552 3.55155 51.596 3.44926 51.6689 3.30169L52.8675 0.872956Z" fill="#FFC700"/>
<path d="M4.86751 0.872956C5.05091 0.501333 5.58084 0.501332 5.76424 0.872955L6.9629 3.30169C7.03573 3.44926 7.17651 3.55155 7.33937 3.57521L10.0196 3.96468C10.4297 4.02427 10.5935 4.52825 10.2967 4.81752L8.35728 6.70803C8.23944 6.8229 8.18566 6.9884 8.21348 7.1506L8.67133 9.82003C8.74138 10.2285 8.31266 10.54 7.94585 10.3471L5.54855 9.08678C5.40288 9.01021 5.22887 9.01021 5.08321 9.08678L2.6859 10.3471C2.31909 10.54 1.89037 10.2285 1.96043 9.82003L2.41827 7.1506C2.44609 6.9884 2.39231 6.8229 2.27447 6.70803L0.335012 4.81752C0.0382539 4.52826 0.202008 4.02427 0.612119 3.96468L3.29239 3.57521C3.45524 3.55155 3.59602 3.44926 3.66886 3.30169L4.86751 0.872956ZM16.8675 0.872956C17.0509 0.501333 17.5808 0.501332 17.7642 0.872955L18.9629 3.30169C19.0357 3.44926 19.1765 3.55155 19.3394 3.57521L22.0196 3.96468C22.4297 4.02427 22.5935 4.52825 22.2967 4.81752L20.3573 6.70803C20.2394 6.8229 20.1857 6.9884 20.2135 7.1506L20.6713 9.82003C20.7414 10.2285 20.3127 10.54 19.9459 10.3471L17.5485 9.08678C17.4029 9.01021 17.2289 9.01021 17.0832 9.08678L14.6859 10.3471C14.3191 10.54 13.8904 10.2285 13.9604 9.82003L14.4183 7.1506C14.4461 6.9884 14.3923 6.8229 14.2745 6.70803L12.335 4.81752C12.0383 4.52826 12.202 4.02427 12.6121 3.96468L15.2924 3.57521C15.4552 3.55155 15.596 3.44926 15.6689 3.30169L16.8675 0.872956ZM28.8675 0.872956C29.0509 0.501333 29.5808 0.501332 29.7642 0.872955L30.9629 3.30169C31.0357 3.44926 31.1765 3.55155 31.3394 3.57521L34.0196 3.96468C34.4297 4.02427 34.5935 4.52825 34.2967 4.81752L32.3573 6.70803C32.2394 6.8229 32.1857 6.9884 32.2135 7.1506L32.6713 9.82003C32.7414 10.2285 32.3127 10.54 31.9459 10.3471L29.5485 9.08678C29.4029 9.01021 29.2289 9.01021 29.0832 9.08678L26.6859 10.3471C26.3191 10.54 25.8904 10.2285 25.9604 9.82003L26.4183 7.1506C26.4461 6.9884 26.3923 6.8229 26.2745 6.70803L24.335 4.81752C24.0383 4.52826 24.202 4.02427 24.6121 3.96468L27.2924 3.57521C27.4552 3.55155 27.596 3.44926 27.6689 3.30169L28.8675 0.872956ZM40.8675 0.872956C41.0509 0.501333 41.5808 0.501332 41.7642 0.872955L42.9629 3.30169C43.0357 3.44926 43.1765 3.55155 43.3394 3.57521L46.0196 3.96468C46.4297 4.02427 46.5935 4.52825 46.2967 4.81752L44.3573 6.70803C44.2394 6.8229 44.1857 6.9884 44.2135 7.1506L44.6713 9.82003C44.7414 10.2285 44.3127 10.54 43.9459 10.3471L41.5485 9.08678C41.4029 9.01021 41.2289 9.01021 41.0832 9.08678L38.6859 10.3471C38.3191 10.54 37.8904 10.2285 37.9604 9.82003L38.4183 7.1506C38.4461 6.9884 38.3923 6.8229 38.2745 6.70803L36.335 4.81752C36.0383 4.52826 36.202 4.02427 36.6121 3.96468L39.2924 3.57521C39.4552 3.55155 39.596 3.44926 39.6689 3.30169L40.8675 0.872956ZM52.8675 0.872956C53.0509 0.501333 53.5808 0.501332 53.7642 0.872955L54.9629 3.30169C55.0357 3.44926 55.1765 3.55155 55.3394 3.57521L58.0196 3.96468C58.4297 4.02427 58.5935 4.52825 58.2967 4.81752L56.3573 6.70803C56.2394 6.8229 56.1857 6.9884 56.2135 7.1506L56.6713 9.82003C56.7414 10.2285 56.3127 10.54 55.9459 10.3471L53.5485 9.08678C53.4029 9.01021 53.2289 9.01021 53.0832 9.08678L50.6859 10.3471C50.3191 10.54 49.8904 10.2285 49.9604 9.82003L50.4183 7.1506C50.4461 6.9884 50.3923 6.8229 50.2745 6.70803L48.335 4.81752C48.0383 4.52826 48.202 4.02427 48.6121 3.96468L51.2924 3.57521C51.4552 3.55155 51.596 3.44926 51.6689 3.30169L52.8675 0.872956Z" fill="#FFC700"/>
<path d="M4.86751 0.872956C5.05091 0.501333 5.58084 0.501332 5.76424 0.872955L6.9629 3.30169C7.03573 3.44926 7.17651 3.55155 7.33937 3.57521L10.0196 3.96468C10.4297 4.02427 10.5935 4.52825 10.2967 4.81752L8.35728 6.70803C8.23944 6.8229 8.18566 6.9884 8.21348 7.1506L8.67133 9.82003C8.74138 10.2285 8.31266 10.54 7.94585 10.3471L5.54855 9.08678C5.40288 9.01021 5.22887 9.01021 5.08321 9.08678L2.6859 10.3471C2.31909 10.54 1.89037 10.2285 1.96043 9.82003L2.41827 7.1506C2.44609 6.9884 2.39231 6.8229 2.27447 6.70803L0.335012 4.81752C0.0382539 4.52826 0.202008 4.02427 0.612119 3.96468L3.29239 3.57521C3.45524 3.55155 3.59602 3.44926 3.66886 3.30169L4.86751 0.872956ZM16.8675 0.872956C17.0509 0.501333 17.5808 0.501332 17.7642 0.872955L18.9629 3.30169C19.0357 3.44926 19.1765 3.55155 19.3394 3.57521L22.0196 3.96468C22.4297 4.02427 22.5935 4.52825 22.2967 4.81752L20.3573 6.70803C20.2394 6.8229 20.1857 6.9884 20.2135 7.1506L20.6713 9.82003C20.7414 10.2285 20.3127 10.54 19.9459 10.3471L17.5485 9.08678C17.4029 9.01021 17.2289 9.01021 17.0832 9.08678L14.6859 10.3471C14.3191 10.54 13.8904 10.2285 13.9604 9.82003L14.4183 7.1506C14.4461 6.9884 14.3923 6.8229 14.2745 6.70803L12.335 4.81752C12.0383 4.52826 12.202 4.02427 12.6121 3.96468L15.2924 3.57521C15.4552 3.55155 15.596 3.44926 15.6689 3.30169L16.8675 0.872956ZM28.8675 0.872956C29.0509 0.501333 29.5808 0.501332 29.7642 0.872955L30.9629 3.30169C31.0357 3.44926 31.1765 3.55155 31.3394 3.57521L34.0196 3.96468C34.4297 4.02427 34.5935 4.52825 34.2967 4.81752L32.3573 6.70803C32.2394 6.8229 32.1857 6.9884 32.2135 7.1506L32.6713 9.82003C32.7414 10.2285 32.3127 10.54 31.9459 10.3471L29.5485 9.08678C29.4029 9.01021 29.2289 9.01021 29.0832 9.08678L26.6859 10.3471C26.3191 10.54 25.8904 10.2285 25.9604 9.82003L26.4183 7.1506C26.4461 6.9884 26.3923 6.8229 26.2745 6.70803L24.335 4.81752C24.0383 4.52826 24.202 4.02427 24.6121 3.96468L27.2924 3.57521C27.4552 3.55155 27.596 3.44926 27.6689 3.30169L28.8675 0.872956ZM40.8675 0.872956C41.0509 0.501333 41.5808 0.501332 41.7642 0.872955L42.9629 3.30169C43.0357 3.44926 43.1765 3.55155 43.3394 3.57521L46.0196 3.96468C46.4297 4.02427 46.5935 4.52825 46.2967 4.81752L44.3573 6.70803C44.2394 6.8229 44.1857 6.9884 44.2135 7.1506L44.6713 9.82003C44.7414 10.2285 44.3127 10.54 43.9459 10.3471L41.5485 9.08678C41.4029 9.01021 41.2289 9.01021 41.0832 9.08678L38.6859 10.3471C38.3191 10.54 37.8904 10.2285 37.9604 9.82003L38.4183 7.1506C38.4461 6.9884 38.3923 6.8229 38.2745 6.70803L36.335 4.81752C36.0383 4.52826 36.202 4.02427 36.6121 3.96468L39.2924 3.57521C39.4552 3.55155 39.596 3.44926 39.6689 3.30169L40.8675 0.872956ZM52.8675 0.872956C53.0509 0.501333 53.5808 0.501332 53.7642 0.872955L54.9629 3.30169C55.0357 3.44926 55.1765 3.55155 55.3394 3.57521L58.0196 3.96468C58.4297 4.02427 58.5935 4.52825 58.2967 4.81752L56.3573 6.70803C56.2394 6.8229 56.1857 6.9884 56.2135 7.1506L56.6713 9.82003C56.7414 10.2285 56.3127 10.54 55.9459 10.3471L53.5485 9.08678C53.4029 9.01021 53.2289 9.01021 53.0832 9.08678L50.6859 10.3471C50.3191 10.54 49.8904 10.2285 49.9604 9.82003L50.4183 7.1506C50.4461 6.9884 50.3923 6.8229 50.2745 6.70803L48.335 4.81752C48.0383 4.52826 48.202 4.02427 48.6121 3.96468L51.2924 3.57521C51.4552 3.55155 51.596 3.44926 51.6689 3.30169L52.8675 0.872956Z" fill="#FFC700"/>
<path d="M4.86751 0.872956C5.05091 0.501333 5.58084 0.501332 5.76424 0.872955L6.9629 3.30169C7.03573 3.44926 7.17651 3.55155 7.33937 3.57521L10.0196 3.96468C10.4297 4.02427 10.5935 4.52825 10.2967 4.81752L8.35728 6.70803C8.23944 6.8229 8.18566 6.9884 8.21348 7.1506L8.67133 9.82003C8.74138 10.2285 8.31266 10.54 7.94585 10.3471L5.54855 9.08678C5.40288 9.01021 5.22887 9.01021 5.08321 9.08678L2.6859 10.3471C2.31909 10.54 1.89037 10.2285 1.96043 9.82003L2.41827 7.1506C2.44609 6.9884 2.39231 6.8229 2.27447 6.70803L0.335012 4.81752C0.0382539 4.52826 0.202008 4.02427 0.612119 3.96468L3.29239 3.57521C3.45524 3.55155 3.59602 3.44926 3.66886 3.30169L4.86751 0.872956ZM16.8675 0.872956C17.0509 0.501333 17.5808 0.501332 17.7642 0.872955L18.9629 3.30169C19.0357 3.44926 19.1765 3.55155 19.3394 3.57521L22.0196 3.96468C22.4297 4.02427 22.5935 4.52825 22.2967 4.81752L20.3573 6.70803C20.2394 6.8229 20.1857 6.9884 20.2135 7.1506L20.6713 9.82003C20.7414 10.2285 20.3127 10.54 19.9459 10.3471L17.5485 9.08678C17.4029 9.01021 17.2289 9.01021 17.0832 9.08678L14.6859 10.3471C14.3191 10.54 13.8904 10.2285 13.9604 9.82003L14.4183 7.1506C14.4461 6.9884 14.3923 6.8229 14.2745 6.70803L12.335 4.81752C12.0383 4.52826 12.202 4.02427 12.6121 3.96468L15.2924 3.57521C15.4552 3.55155 15.596 3.44926 15.6689 3.30169L16.8675 0.872956ZM28.8675 0.872956C29.0509 0.501333 29.5808 0.501332 29.7642 0.872955L30.9629 3.30169C31.0357 3.44926 31.1765 3.55155 31.3394 3.57521L34.0196 3.96468C34.4297 4.02427 34.5935 4.52825 34.2967 4.81752L32.3573 6.70803C32.2394 6.8229 32.1857 6.9884 32.2135 7.1506L32.6713 9.82003C32.7414 10.2285 32.3127 10.54 31.9459 10.3471L29.5485 9.08678C29.4029 9.01021 29.2289 9.01021 29.0832 9.08678L26.6859 10.3471C26.3191 10.54 25.8904 10.2285 25.9604 9.82003L26.4183 7.1506C26.4461 6.9884 26.3923 6.8229 26.2745 6.70803L24.335 4.81752C24.0383 4.52826 24.202 4.02427 24.6121 3.96468L27.2924 3.57521C27.4552 3.55155 27.596 3.44926 27.6689 3.30169L28.8675 0.872956ZM40.8675 0.872956C41.0509 0.501333 41.5808 0.501332 41.7642 0.872955L42.9629 3.30169C43.0357 3.44926 43.1765 3.55155 43.3394 3.57521L46.0196 3.96468C46.4297 4.02427 46.5935 4.52825 46.2967 4.81752L44.3573 6.70803C44.2394 6.8229 44.1857 6.9884 44.2135 7.1506L44.6713 9.82003C44.7414 10.2285 44.3127 10.54 43.9459 10.3471L41.5485 9.08678C41.4029 9.01021 41.2289 9.01021 41.0832 9.08678L38.6859 10.3471C38.3191 10.54 37.8904 10.2285 37.9604 9.82003L38.4183 7.1506C38.4461 6.9884 38.3923 6.8229 38.2745 6.70803L36.335 4.81752C36.0383 4.52826 36.202 4.02427 36.6121 3.96468L39.2924 3.57521C39.4552 3.55155 39.596 3.44926 39.6689 3.30169L40.8675 0.872956ZM52.8675 0.872956C53.0509 0.501333 53.5808 0.501332 53.7642 0.872955L54.9629 3.30169C55.0357 3.44926 55.1765 3.55155 55.3394 3.57521L58.0196 3.96468C58.4297 4.02427 58.5935 4.52825 58.2967 4.81752L56.3573 6.70803C56.2394 6.8229 56.1857 6.9884 56.2135 7.1506L56.6713 9.82003C56.7414 10.2285 56.3127 10.54 55.9459 10.3471L53.5485 9.08678C53.4029 9.01021 53.2289 9.01021 53.0832 9.08678L50.6859 10.3471C50.3191 10.54 49.8904 10.2285 49.9604 9.82003L50.4183 7.1506C50.4461 6.9884 50.3923 6.8229 50.2745 6.70803L48.335 4.81752C48.0383 4.52826 48.202 4.02427 48.6121 3.96468L51.2924 3.57521C51.4552 3.55155 51.596 3.44926 51.6689 3.30169L52.8675 0.872956Z" fill="#FFC700"/>
</g>
</g>
</svg>
